{"title":"Crimson.Peak.2015.HD-TS.XVID.AC3.HQ.Hive-CM8","uid":12693992,"size":1767684502,"categoryP":"video","categoryS":"movies","magnet":"?xt=urn:btih:fc7af92aec21d7016687de99b962ab99425db433&amp;dn=Crimson.Peak.2015.HD-TS.XVID.AC3.HQ.Hive-CM8&amp;tr=udp%3A%2F%2Ftracker.leechers-paradise.org%3A6969&amp;tr=udp%3A%2F%2Fzer0day.ch%3A1337&amp;tr=udp%3A%2F%2Fopen.demonii.com%3A1337&amp;tr=udp%3A%2F%2Ftracker.coppersurfer.tk%3A6969&amp;tr=udp%3A%2F%2Fexodus.desync.com%3A6969","seeders":0,"leechers":0,"uploader":"TvTeam","files":4,"time":1446713826,"description":"------------------------------------------------------------------------\r\n\r  https://www.torrenting.com\r\n\r\nSign up is OPEN - for time being. Come and have fun.\r\n\r\n------------------------------------------------------------------------[center][img]http://img908.imageshack.us/img908/1898/rOldzo.jpg[/img]\n\n \n[color=blue][size=4][b]Crimson.Peak.2015.HD-TS.XVID.AC3.HQ.Hive-CM8[/b][/size][/color]\n\nThx Hive\n\nCM8 Doing It Right The First Time \n\nSources:\n\nVideo: 1080p HDCAM Incoming big THX\nAudio: Sweet Line Big Thx to S4NDM4N \n\nNotes:\n\nquality was awesome on it, best of the best\n\nEncode:\n\nadded bit brightness and fixed rgb,removed some flicker slightly.\nAudio as usual line from S4NDM4N, thx for always getting quality stuff for me\nlipsynced to my video\n\ngot very nice\nwill def. do me till retail\nenjoy\n\nVideo: 1280x720 @bitrate 4000-8000\nAudio: English Line AC3 2.0 Stereo\nSample: yes included\n\n\nScreener time is very near, if you can get hold of a disc or file msg me\nthx\n \nhttp://www.imdb.com/title/tt2554274/\n\n\nGeneral\nComplete name                  : Crimson.Peak.2015.HD-TS.XVID.AC3.HQ.Hive-CM8.avi\nFormat                         : AVI\nFormat/Info                    : Audio Video Interleave\nFile size                      : 1.63 GiB\nDuration                       : 1h 53mn\nOverall bit rate               : 2 066 Kbps\nWriting application            : Nandub v1.0rc2\nWriting library                : Nandub build 1853/release\n\nVideo\nID                             : 0\nFormat                         : MPEG-4 Visual\nFormat profile                 : Advanced   \nFormat settings, BVOP          : 2\nFormat settings, QPel          : Yes\nFormat settings, GMC           : No warppoints\nFormat settings, Matrix        : Default (H.263)\nMuxing mode                    : Packed bitstream\nCodec ID                       : XVID\nCodec ID/Hint                  : XviD\nDuration                       : 1h 53mn\nBit rate                       : 1 798 Kbps\nWidth                          : 720 pixels\nHeight                         : 400 pixels\nDisplay aspect ratio           : 16:9\nFrame rate                     : 29.970 fps\nColor space                    : YUV\nChroma subsampling             : 4:2:0\nBit depth                      : 8 bits\nScan type                      : Progressive\nCompression mode               : Lossy\nBits/(Pixel*Frame)             : 0.208\nStream size                    : 1.42 GiB (87%)\nWriting library                : XviD 1.2.1 (UTC 2008-12-04)\n\nAudio\nID                             : 1\nFormat                         : AC-3\nFormat/Info                    : Audio Coding 3\nMode extension                 : CM (complete main)\nFormat settings, Endianness    : Big\nCodec ID                       : 2000\nDuration                       : 1h 53mn\nBit rate mode                  : Constant\nBit rate                       : 256 Kbps\nChannel(s)                     : 2 channels\nChannel positions              : Front: L R\nSampling rate                  : 48.0 KHz\nBit depth                      : 16 bits\nCompression mode               : Lossy\nStream size                    : 207 MiB (12%)\nAlignment                      : Split accross interleaves\nInterleave, duration           : 33 ms (1.00 video frame)\nInterleave, preload duration   : 500 ms\n\n\n\n\nScreens \n\n[img]http://img908.imageshack.us/img908/5126/uQHX2U.png[/img]\n[img]http://img905.imageshack.us/img905/3290/GJL9sT.png[/img]\n[img]http://img903.imageshack.us/img903/9787/353GsH.png[/img]\n[img]http://img907.imageshack.us/img907/2760/Pcxqk6.png[/img]\n[img]http://img905.imageshack.us/img905/4526/fkB8nr.png[/img]\n[img]http://img911.imageshack.us/img911/4205/9BaXHL.png[/img]\n[img]http://img911.imageshack.us/img911/7339/c0M7f7.png[/img]\n[img]http://img903.imageshack.us/img903/1971/5fKVNd.png[/img]\n\n\n\nPlot\n\nIn the aftermath of a family tragedy, an aspiring author is torn between love for her \nchildhood friend and the temptation of a mysterious outsider. Trying to escape the ghosts of her past, \nshe is swept away to a house that breathes, bleeds - and remembers.\n\nCast\n\nMia Wasikowska \t ... \tEdith Cushing\nJessica Chastain ... \tLucille Sharpe\nTom Hiddleston \t ... \tThomas Sharpe\nCharlie Hunnam \t ... \tDr. Alan McMichael \n\n\n\n\nGreetz\n\niNCOMiNG,Izzy,MenaceIISociety,jiinx,SiMPLE,CherryBomb\nranbailey,ViSiON,UnKnOwN,YanKeeS,COPYxRIGHT,THC,VAiN,ACAB,DRs\nLKRG,Kingstoner,SiMPLE,TiTAN,cadance,PLAYNOW\nUnevano,BigVik,Rapeseed,SAFC,goldadvance,KaN1vE,Pinnz,Wayne,HiGH\nSeeN,jtr,Limey,ICONiK,TED,rkofan,mrtoke09\nMr Hive\n\n\n\n\nLOOKING FOR ANYTHING YOU WANT TO LOOK AND SOUND BETTER\n\nCOME FIND US WE DONT BITE \n  [/center]","torrent":{"xt":"urn:btih:fc7af92aec21d7016687de99b962ab99425db433","amp;dn":"Crimson.Peak.2015.HD-TS.XVID.AC3.HQ.Hive-CM8","amp;tr":["udp%3A%2F%2Ftracker.leechers-paradise.org%3A6969","udp%3A%2F%2Fzer0day.ch%3A1337","udp%3A%2F%2Fopen.demonii.com%3A1337","udp%3A%2F%2Ftracker.coppersurfer.tk%3A6969","udp%3A%2F%2Fexodus.desync.com%3A6969"],"infoHash":"fc7af92aec21d7016687de99b962ab99425db433","infoHashBuffer":{"type":"Buffer","data":[252,122,249,42,236,33,215,1,102,135,222,153,185,98,171,153,66,93,180,51]},"announce":[],"urlList":[]}}